# xmcd
#
# Track frame offsets:
#	150
#	22579
#	44560
#	71216
#	89953
#	112796
#	134787
#	149877
#	176609
#	199681
#
# Disc length: 3032 seconds
#
# Revision: 1
# Processed by: cddbd v1.5.2PL0 Copyright (c) Steve Scherf et al.
# Submitted via: audiograbber 1.83.01
#
DISCID=9c0bd60a
DTITLE=Nana Sousa Dias - Tom Maior
DYEAR=2000
DGENRE=Latin
TTITLE0=One Note Samba
TTITLE1=Meditação
TTITLE2=Desafinado
TTITLE3=Insensatez
TTITLE4=Wave
TTITLE5=Amor Em Paz
TTITLE6=Corcovado
TTITLE7=Caminhos Cruzados
TTITLE8=Garota de Ipanema
TTITLE9=Chovendo Na Roseira
EXTD=
EXTT0=
EXTT1=
EXTT2=
EXTT3=
EXTT4=
EXTT5=
EXTT6=
EXTT7=
EXTT8=
EXTT9=
PLAYORDER=
